LG_Stand_to_Walk01																		
version=1																		
nRows=35																		
nColumns=19																		
inDegrees=yes																		
endheader																		
time	ground_force2_vx	ground_force2_vy	ground_force2_vz	ground_force2_px	ground_force2_py	ground_force2_pz	ground_torque2_x	ground_torque2_y	ground_torque2_z	ground_force1_vx	ground_force1_vy	ground_force1_vz	ground_force1_px	ground_force1_py	ground_force1_pz	ground_torque1_x	ground_torque1_y	ground_torque1_z
3.67	-13.214588	313.091553	11.92181	0.177319	0	-0.345661	4.00E-06	0.214615	3.00E-06	0	0	0	-0.13	0	0.305	0	0	0
3.671	-13.214588	313.415527	12.07831	0.177319	0	-0.345661	4.00E-06	0.214615	3.00E-06	0	0	0	-0.13	0	0.305	0	0	0
3.672	-13.214588	314.629761	12.313221	0.176787	0	-0.345661	7.00E-06	0.21016	1.00E-06	0	0	0	-0.13	0	0.305	0	0	0
3.673	-13.600235	317.563599	12.313301	0.177021	0	-0.345247	7.00E-06	0.21016	3.00E-06	0	0	0	-0.13	0	0.305	0	0	0
3.674	-13.836676	317.909576	12.313301	0.177021	0	-0.345425	7.00E-06	0.220849	4.00E-06	0	0	0	-0.13	0	0.305	0	0	0
3.675	-13.836676	317.909576	12.861496	0.177021	0	-0.345425	3.00E-06	0.220849	4.00E-06	0	0	0	-0.13	0	0.305	0	0	0
3.676	-13.836676	319.454407	12.861576	0.17685	0	-0.345425	3.00E-06	0.187516	4.00E-06	0	0	0	-0.13	0	0.305	0	0	0
3.677	-14.221601	319.454407	12.861576	0.176646	0	-0.34543	1.00E-05	0.187516	2.00E-06	0	0	0	-0.13	0	0.305	0	0	0
3.678	-14.378745	321.347107	12.861576	0.176603	0	-0.345912	1.00E-05	0.187516	2.00E-06	0	0	0	-0.13	0	0.305	0	0	0
3.679	-14.378745	321.503357	12.861576	0.176603	0	-0.345912	6.00E-06	0.114856	2.00E-06	0	0	0	-0.13	0	0.305	0	0	0
3.68	-14.299452	324.094971	12.861576	0.176603	0	-0.345912	6.00E-06	0.114856	3.00E-06	0	0	0	-0.13	0	0.305	0	0	0
3.681	-14.299452	324.097717	13.096407	0.177154	0	-0.346332	3.00E-06	0.152676	3.00E-06	0	0	0	-0.13	0	0.305	0	0	0
3.682	-14.846573	324.097717	13.096407	0.177154	0	-0.346332	3.00E-06	0.152676	3.00E-06	0	0	0	-0.13	0	0.305	0	0	0
3.683	-15.00011	329.780579	13.252867	0.177154	0	-0.345337	3.00E-06	0.122351	3.00E-06	0	0	0	-0.13	0	0.305	0	0	0
3.684	-15.078683	329.801056	13.6446	0.17709	0	-0.344892	5.00E-06	0.080267	4.00E-06	0	0	0	-0.13	0	0.305	0	0	0
3.685	-15.466494	331.508972	13.6446	0.17709	0	-0.344892	7.00E-06	0.080267	5.00E-06	0	0	0	-0.13	0	0.305	0	0	0
3.686	-15.470103	334.266174	13.331278	0.177414	0	-0.344892	1.10E-05	0.098385	5.00E-06	0	0	0	-0.13	0	0.305	0	0	0
3.687	-15.938651	335.293732	13.331278	0.177951	0	-0.34505	1.10E-05	0.121462	5.00E-06	0	0	0	-0.13	0	0.305	0	0	0
3.688	-16.01145	338.559204	13.801462	0.177714	0	-0.34505	7.00E-06	0.098385	2.00E-06	0	0	0	-0.13	0	0.305	0	0	0
3.689	-16.01145	340.625549	14.036215	0.177723	0	-0.345133	3.00E-06	0.121462	3.00E-06	0	0	0	-0.13	0	0.305	0	0	0
3.69	-16.17004	341.155945	14.036215	0.177723	0	-0.345133	7.00E-06	0.019692	3.00E-06	0	0	0	-0.13	0	0.305	0	0	0
3.691	-16.319969	343.727539	14.036215	0.177723	0	-0.34528	4.00E-06	0.131404	4.00E-06	0	0	0	-0.13	0	0.305	0	0	0
3.692	-16.710667	343.904541	14.192713	0.177552	0	-0.345456	8.00E-06	-0.033256	4.00E-06	0	0	0	-0.13	0	0.305	0	0	0
3.693	-17.024958	344.070404	14.349613	0.177552	0	-0.345456	7.00E-06	0.023464	3.00E-06	0	0	0	-0.13	0	0.305	0	0	0
3.694	-17.024958	347.341309	15.05467	0.177978	0	-0.345982	7.00E-06	-0.033256	3.00E-06	0	0	0	-0.13	0	0.305	0	0	0
3.695	-17.025677	347.855896	15.36791	0.177978	0	-0.345982	7.00E-06	0.023464	6.00E-06	0	0	0	-0.13	0	0.305	0	0	0
3.696	-17.094149	349.408844	15.36791	0.177524	0	-0.345818	7.00E-06	-0.085126	6.00E-06	0	0	0	-0.13	0	0.305	0	0	0
3.697	-17.094149	350.788177	15.446163	0.177042	0	-0.345073	1.00E-05	-0.026039	0	0	0	0	-0.13	0	0.305	0	0	0
3.698	-17.252735	351.47052	15.211172	0.1771	0	-0.345369	1.00E-05	-0.026039	0	0	0	0	-0.13	0	0.305	0	0	0
3.699	-17.252735	351.646027	15.446163	0.1771	0	-0.345369	7.00E-06	-0.026039	0	0	0	0	-0.13	0	0.305	0	0	0
3.7	-17.252735	354.921936	15.52437	0.177475	0	-0.345369	1.00E-06	0.007448	7.00E-06	0	0	0	-0.13	0	0.305	0	0	0
3.701	-17.329144	356.123108	15.837692	0.177634	0	-0.345171	1.00E-06	-0.122521	5.00E-06	0	0	0	-0.13	0	0.305	0	0	0
3.702	-17.487734	358.371094	15.994478	0.177475	0	-0.344853	4.00E-06	-0.122521	5.00E-06	0	0	0	-0.13	0	0.305	0	0	0
3.703	-17.794807	361.110901	15.994478	0.177591	0	-0.344845	5.00E-06	-0.164966	3.00E-06	0	0	0	-0.13	0	0.305	0	0	0
3.704	-17.795528	362.332855	16.386049	0.177591	0	-0.344646	5.00E-06	-0.164966	2.00E-06	0	0	0	-0.13	0	0.305	0	0	0
